<?xml version="1.0" encoding="UTF-8"?>
<!DOCTYPE svg PUBLIC "-//W3C//DTD SVG 1.1//EN" "http://www.w3.org/Graphics/SVG/1.1/DTD/svg11.dtd">
<svg xmlns="http://www.w3.org/2000/svg" version="1.1" width="512px" height="512px" style="shape-rendering:geometricPrecision; text-rendering:geometricPrecision; image-rendering:optimizeQuality; fill-rule:evenodd; clip-rule:evenodd" xmlns:xlink="http://www.w3.org/1999/xlink">
<g><path style="opacity:0.99" fill="#000000" d="M 20.5,20.5 C 148.833,20.5 277.167,20.5 405.5,20.5C 405.5,56.1667 405.5,91.8333 405.5,127.5C 390.833,127.5 376.167,127.5 361.5,127.5C 361.5,106.167 361.5,84.8333 361.5,63.5C 319.167,63.5 276.833,63.5 234.5,63.5C 234.5,191.5 234.5,319.5 234.5,447.5C 255.833,447.5 277.167,447.5 298.5,447.5C 298.5,461.833 298.5,476.167 298.5,490.5C 241.5,490.5 184.5,490.5 127.5,490.5C 127.5,476.167 127.5,461.833 127.5,447.5C 148.833,447.5 170.167,447.5 191.5,447.5C 191.5,319.5 191.5,191.5 191.5,63.5C 148.833,63.5 106.167,63.5 63.5,63.5C 63.5,84.8333 63.5,106.167 63.5,127.5C 49.1667,127.5 34.8333,127.5 20.5,127.5C 20.5,91.8333 20.5,56.1667 20.5,20.5 Z"/></g>
<g><path style="opacity:0.976" fill="#000000" d="M 383.5,169.5 C 397.833,169.5 412.167,169.5 426.5,169.5C 426.333,237.167 426.5,304.834 427,372.5C 440.681,358.653 454.514,344.986 468.5,331.5C 479.167,341.5 489.5,351.833 499.5,362.5C 468.474,394.36 436.974,425.693 405,456.5C 372.833,425.667 341.333,394.167 310.5,362C 319.972,351.361 329.972,341.194 340.5,331.5C 354.819,345.319 368.986,359.319 383,373.5C 383.5,305.501 383.667,237.501 383.5,169.5 Z"/></g>
</svg>
