<?xml version="1.0" encoding="UTF-8"?>
<!DOCTYPE svg PUBLIC "-//W3C//DTD SVG 1.1//EN" "http://www.w3.org/Graphics/SVG/1.1/DTD/svg11.dtd">
<svg xmlns="http://www.w3.org/2000/svg" version="1.1" width="512px" height="512px" style="shape-rendering:geometricPrecision; text-rendering:geometricPrecision; image-rendering:optimizeQuality; fill-rule:evenodd; clip-rule:evenodd" xmlns:xlink="http://www.w3.org/1999/xlink">
<g><path style="opacity:0.986" fill="#000000" d="M 100.5,31.5 C 203.834,31.3333 307.167,31.5 410.5,32C 443.144,41.6568 457.978,63.4902 455,97.5C 453.716,105.019 451.049,112.019 447,118.5C 405.333,169.5 363.667,220.5 322,271.5C 321.08,274.101 320.413,276.768 320,279.5C 319.667,325.5 319.333,371.5 319,417.5C 316.423,425.413 311.589,431.58 304.5,436C 282.136,450.514 259.469,464.514 236.5,478C 219.771,482.866 205.938,478.7 195,465.5C 193.725,463.283 192.725,460.949 192,458.5C 191.667,398.833 191.333,339.167 191,279.5C 190.587,276.768 189.92,274.101 189,271.5C 148.378,221.209 107.378,171.209 66,121.5C 52.7876,100.243 52.1209,78.5767 64,56.5C 73.0975,43.5506 85.2642,35.2172 100.5,31.5 Z M 111.5,79.5 C 207.501,79.3333 303.501,79.5 399.5,80C 406.347,81.8656 408.18,86.0323 405,92.5C 363.711,143.458 322.044,194.124 280,244.5C 276.918,247.659 274.584,251.325 273,255.5C 271.681,303.108 271.014,350.775 271,398.5C 260.667,405.167 250.333,411.833 240,418.5C 239.987,364.109 239.321,309.775 238,255.5C 236.416,251.325 234.082,247.659 231,244.5C 189.333,193.833 147.667,143.167 106,92.5C 102.953,85.9387 104.787,81.6054 111.5,79.5 Z"/></g>
</svg>
