<?xml version="1.0" encoding="UTF-8"?>
<!DOCTYPE svg PUBLIC "-//W3C//DTD SVG 1.1//EN" "http://www.w3.org/Graphics/SVG/1.1/DTD/svg11.dtd">
<svg xmlns="http://www.w3.org/2000/svg" version="1.1" width="512px" height="512px" style="shape-rendering:geometricPrecision; text-rendering:geometricPrecision; image-rendering:optimizeQuality; fill-rule:evenodd; clip-rule:evenodd" xmlns:xlink="http://www.w3.org/1999/xlink">
<g><path style="opacity:0.972" fill="#000000" d="M 301.5,-0.5 C 311.167,-0.5 320.833,-0.5 330.5,-0.5C 382.354,10.3565 412.354,42.0232 420.5,94.5C 445.585,103.312 463.419,119.978 474,144.5C 488.509,186.302 479.342,221.802 446.5,251C 428.473,264.397 408.139,270.897 385.5,270.5C 375.688,297.313 357.355,315.313 330.5,324.5C 333.426,345.883 329.092,365.55 317.5,383.5C 323.761,395.116 327.927,407.449 330,420.5C 330.5,440.831 330.667,461.164 330.5,481.5C 350.5,481.5 370.5,481.5 390.5,481.5C 390.5,491.5 390.5,501.5 390.5,511.5C 300.5,511.5 210.5,511.5 120.5,511.5C 120.5,501.5 120.5,491.5 120.5,481.5C 140.5,481.5 160.5,481.5 180.5,481.5C 180.333,461.164 180.5,440.831 181,420.5C 183.073,407.449 187.239,395.116 193.5,383.5C 181.771,365.572 177.437,345.905 180.5,324.5C 153.645,315.313 135.312,297.313 125.5,270.5C 86.5338,270.281 57.7004,253.281 39,219.5C 23.2914,182.315 28.2914,148.315 54,117.5C 73.6206,97.7831 97.4539,88.1165 125.5,88.5C 144.04,45.7169 176.707,26.2169 223.5,30C 228.288,30.7238 232.955,31.8905 237.5,33.5C 254.911,14.7946 276.244,3.46124 301.5,-0.5 Z M 314.5,29.5 C 350.616,31.6252 374.783,49.6252 387,83.5C 387.794,86.4715 388.461,89.4715 389,92.5C 389.168,101.186 389.668,109.852 390.5,118.5C 431.152,124.968 450.652,148.634 449,189.5C 441.346,219.985 421.846,236.652 390.5,239.5C 380.816,237.963 371.149,236.297 361.5,234.5C 360.412,260.535 348.746,280.035 326.5,293C 307.009,301.12 288.009,300.12 269.5,290C 264.692,286.692 260.025,283.192 255.5,279.5C 245.55,288.81 233.883,294.976 220.5,298C 188.255,300.964 166.088,287.464 154,257.5C 152.068,249.907 150.568,242.24 149.5,234.5C 139.851,236.297 130.184,237.963 120.5,239.5C 91.4593,237.068 72.2927,222.068 63,194.5C 57.582,167.744 65.7486,146.244 87.5,130C 97.6282,123.791 108.628,120.291 120.5,119.5C 130.184,121.037 139.851,122.703 149.5,124.5C 152.508,85.9975 173.008,64.3308 211,59.5C 223.918,61.0336 236.085,65.0336 247.5,71.5C 255.241,59.59 264.908,49.4233 276.5,41C 288.367,34.04 301.034,30.2067 314.5,29.5 Z M 253.5,318.5 C 260.01,320.417 266.343,322.917 272.5,326C 267.243,330.42 261.577,334.254 255.5,337.5C 249.423,334.254 243.757,330.42 238.5,326C 243.84,323.997 248.84,321.497 253.5,318.5 Z M 211.5,343.5 C 224.606,357.061 240.273,366.561 258.5,372C 280.556,382.395 294.056,399.561 299,423.5C 300.343,442.806 300.843,462.14 300.5,481.5C 290.5,481.5 280.5,481.5 270.5,481.5C 270.667,463.164 270.5,444.83 270,426.5C 264.74,400.912 250.24,382.745 226.5,372C 217.403,364.639 212.403,355.139 211.5,343.5 Z M 298.5,343.5 C 299.578,348.821 298.411,353.821 295,358.5C 292.926,356.548 290.759,354.715 288.5,353C 292.334,350.332 295.667,347.165 298.5,343.5 Z M 218.5,403.5 C 229.212,409.052 236.045,417.719 239,429.5C 240.36,446.801 240.86,464.135 240.5,481.5C 230.5,481.5 220.5,481.5 210.5,481.5C 210.157,462.14 210.657,442.806 212,423.5C 213.473,416.581 215.64,409.914 218.5,403.5 Z"/></g>
<g><path style="opacity:0.962" fill="#000000" d="M 305.5,59.5 C 328.793,56.3955 345.959,65.0622 357,85.5C 359.868,91.5099 361.035,97.8433 360.5,104.5C 350.167,104.5 339.833,104.5 329.5,104.5C 329.173,95.5068 324.507,90.8402 315.5,90.5C 306.493,90.8402 301.827,95.5068 301.5,104.5C 291.167,104.5 280.833,104.5 270.5,104.5C 271.38,81.0578 283.047,66.0578 305.5,59.5 Z"/></g>
<g><path style="opacity:0.962" fill="#000000" d="M 245.5,119.5 C 268.793,116.396 285.959,125.062 297,145.5C 299.868,151.51 301.035,157.843 300.5,164.5C 290.167,164.5 279.833,164.5 269.5,164.5C 269.173,155.507 264.507,150.84 255.5,150.5C 246.493,150.84 241.827,155.507 241.5,164.5C 231.167,164.5 220.833,164.5 210.5,164.5C 211.38,141.058 223.047,126.058 245.5,119.5 Z"/></g>
<g><path style="opacity:0.962" fill="#000000" d="M 125.5,149.5 C 148.793,146.396 165.959,155.062 177,175.5C 179.868,181.51 181.035,187.843 180.5,194.5C 170.167,194.5 159.833,194.5 149.5,194.5C 149.173,185.507 144.507,180.84 135.5,180.5C 126.493,180.84 121.827,185.507 121.5,194.5C 111.167,194.5 100.833,194.5 90.5,194.5C 91.3805,171.058 103.047,156.058 125.5,149.5 Z"/></g>
<g><path style="opacity:0.962" fill="#000000" d="M 365.5,149.5 C 388.793,146.396 405.959,155.062 417,175.5C 419.868,181.51 421.035,187.843 420.5,194.5C 410.167,194.5 399.833,194.5 389.5,194.5C 389.173,185.507 384.507,180.84 375.5,180.5C 366.493,180.84 361.827,185.507 361.5,194.5C 351.167,194.5 340.833,194.5 330.5,194.5C 331.38,171.058 343.047,156.058 365.5,149.5 Z"/></g>
<g><path style="opacity:0.962" fill="#000000" d="M 215.5,209.5 C 238.793,206.396 255.959,215.062 267,235.5C 269.868,241.51 271.035,247.843 270.5,254.5C 260.167,254.5 249.833,254.5 239.5,254.5C 239.173,245.507 234.507,240.84 225.5,240.5C 216.493,240.84 211.827,245.507 211.5,254.5C 201.167,254.5 190.833,254.5 180.5,254.5C 181.38,231.058 193.047,216.058 215.5,209.5 Z"/></g>
</svg>
