<svg width="100" height="100" viewBox="0 0 100 100" fill="none" xmlns="http://www.w3.org/2000/svg">
<path fill-rule="evenodd" clip-rule="evenodd" d="M0 50C0 22.3857 22.3858 0 50 0C77.6142 0 100 22.3857 100 50C100 77.6143 77.6142 100 50 100C22.3858 100 0 77.6143 0 50ZM58.0627 8H62.8772C71.4858 9.80237 76.4662 15.0595 77.8186 23.7715C81.9831 25.2344 84.9438 28.0012 86.7004 32.0723C89.1092 39.012 87.5873 44.9056 82.135 49.7529C79.1422 51.9771 75.7665 53.0562 72.0081 52.9902C70.3791 57.4416 67.3356 60.4299 62.8772 61.9551C63.363 65.505 62.6435 68.77 60.719 71.75C61.7584 73.6785 62.45 75.7259 62.7942 77.8926C62.8772 81.2678 62.9049 84.6434 62.8772 88.0195H72.8381V93H28.0139V88.0195H37.9749C37.9471 84.6434 37.9749 81.2678 38.0579 77.8926C38.402 75.7259 39.0937 73.6785 40.1331 71.75C38.1859 68.7737 37.4664 65.5087 37.9749 61.9551C33.5165 60.4299 30.473 57.4416 28.844 52.9902C22.375 52.9539 17.5882 50.1316 14.4837 44.5234C11.8758 38.3502 12.7059 32.7056 16.9739 27.5898C20.2312 24.3165 24.1879 22.7117 28.844 22.7754C31.9219 15.6727 37.3452 12.4354 45.1136 13.0635C45.9084 13.1837 46.6832 13.3773 47.4377 13.6445C50.3282 10.5391 53.8699 8.65765 58.0627 8ZM60.2209 12.9805C66.2168 13.3333 70.2289 16.3216 72.2571 21.9453C72.3889 22.4386 72.4996 22.9366 72.5891 23.4395C72.617 24.8815 72.7 26.3201 72.8381 27.7559C79.587 28.8297 82.8243 32.7585 82.55 39.543C81.2794 44.6039 78.0421 47.3709 72.8381 47.8438C71.2304 47.5886 69.6256 47.312 68.0237 47.0137C67.8431 51.3359 65.9063 54.5732 62.2131 56.7256C58.9773 58.0736 55.823 57.9076 52.7502 56.2275C51.9521 55.6783 51.1772 55.0973 50.426 54.4844C48.7742 56.03 46.8373 57.0536 44.6155 57.5557C39.2623 58.0477 35.5822 55.8065 33.5755 50.832C33.2547 49.5715 33.0057 48.2986 32.8284 47.0137C31.2265 47.312 29.6216 47.5886 28.0139 47.8438C23.1927 47.44 20.0108 44.9498 18.468 40.373C17.5686 35.9312 18.9243 32.3618 22.5354 29.665C24.2169 28.6343 26.043 28.0532 28.0139 27.9219C29.6216 28.1771 31.2265 28.4536 32.8284 28.752C33.3278 22.3599 36.7311 18.7629 43.0384 17.9609C45.1829 18.2155 47.2029 18.8796 49.0979 19.9531C50.3831 17.9759 51.9879 16.288 53.9124 14.8896C55.8825 13.7342 57.9854 13.0978 60.2209 12.9805ZM50.094 60.959C51.1748 61.2772 52.2261 61.6923 53.2483 62.2041C52.3755 62.9379 51.4349 63.5744 50.426 64.1133C49.4172 63.5744 48.4765 62.9379 47.6038 62.2041C48.4903 61.8716 49.3204 61.4565 50.094 60.959ZM43.1214 65.1094C45.2971 67.3607 47.8981 68.9379 50.9241 69.8408C54.5857 71.5665 56.8269 74.4164 57.6477 78.3906C57.8707 81.5957 57.9537 84.8055 57.8967 88.0195H52.9163C52.944 84.9755 52.9163 81.9318 52.8333 78.8887C51.96 74.6407 49.5528 71.6246 45.6116 69.8408C44.1013 68.6188 43.2713 67.0416 43.1214 65.1094ZM57.5647 65.1094C57.7437 65.9927 57.5499 66.8228 56.9836 67.5996C56.6393 67.2756 56.2796 66.9713 55.9045 66.6865C56.541 66.2436 57.0944 65.7178 57.5647 65.1094ZM44.2835 75.0703C46.0618 75.992 47.1962 77.4309 47.6868 79.3867C47.9126 82.259 47.9956 85.1367 47.9358 88.0195H42.9554C42.8984 84.8055 42.9814 81.5957 43.2044 78.3906C43.4489 77.2419 43.8087 76.1351 44.2835 75.0703ZM67.2767 22.2773C65.4437 18.8843 62.5939 17.4456 58.7269 17.9609C54.9993 19.0496 53.0624 21.5399 52.9163 25.4316H58.0628C58.1171 23.9387 58.8917 23.1639 60.387 23.1074C61.8823 23.1639 62.657 23.9387 62.7112 25.4316H67.8577C67.9465 24.3265 67.7528 23.2751 67.2767 22.2773ZM48.7659 27.9219C52.6329 27.4066 55.4828 28.8452 57.3157 32.2383C57.7919 33.236 57.9856 34.2874 57.8968 35.3926H52.7503C52.696 33.8996 51.9214 33.1248 50.4261 33.0684C48.9308 33.1248 48.1562 33.8996 48.1019 35.3926H42.9554C43.1015 31.5008 45.0384 29.0106 48.7659 27.9219ZM37.3938 37.2188C35.5609 33.8257 32.711 32.387 28.844 32.9023C25.1165 33.991 23.1797 36.4813 23.0335 40.373H28.18C28.2343 38.8801 29.0089 38.1052 30.5042 38.0488C31.9995 38.1052 32.7741 38.8801 32.8284 40.373H37.9749C38.0637 39.2679 37.87 38.2165 37.3938 37.2188ZM68.6878 32.9023C72.5548 32.387 75.4046 33.8257 77.2376 37.2188C77.7137 38.2165 77.9075 39.2679 77.8187 40.373H72.6722C72.6179 38.8801 71.8433 38.1052 70.348 38.0488C68.8527 38.1052 68.078 38.8801 68.0237 40.373H62.8773C63.0233 36.4813 64.9603 33.991 68.6878 32.9023ZM52.3352 47.1797C50.5023 43.7866 47.6524 42.348 43.7854 42.8633C40.0579 43.952 38.121 46.4422 37.9749 50.334H43.1214C43.1757 48.841 43.9503 48.0662 45.4456 48.0098C46.9409 48.0662 47.7155 48.841 47.7698 50.334H52.9163C53.0051 49.2288 52.8114 48.1774 52.3352 47.1797Z" fill="black"/>
</svg>
