<?xml version="1.0" encoding="UTF-8"?>
<!DOCTYPE svg PUBLIC "-//W3C//DTD SVG 1.1//EN" "http://www.w3.org/Graphics/SVG/1.1/DTD/svg11.dtd">
<svg xmlns="http://www.w3.org/2000/svg" version="1.1" width="512px" height="512px" style="shape-rendering:geometricPrecision; text-rendering:geometricPrecision; image-rendering:optimizeQuality; fill-rule:evenodd; clip-rule:evenodd" xmlns:xlink="http://www.w3.org/1999/xlink">
<g><path style="opacity:0.928" fill="#000000" d="M 243.5,-0.5 C 251.5,-0.5 259.5,-0.5 267.5,-0.5C 283.086,2.3771 296.586,9.3771 308,20.5C 310.739,29.1941 307.573,33.3607 298.5,33C 271.745,10.3139 244.411,9.31391 216.5,30C 206.258,39.6481 200.092,51.4814 198,65.5C 197.333,77.5 197.333,89.5 198,101.5C 208.577,111.65 215.244,123.983 218,138.5C 219.532,152.463 219.866,166.463 219,180.5C 216.774,184.861 213.274,186.361 208.5,185C 206.333,184.167 204.833,182.667 204,180.5C 203.667,169.167 203.333,157.833 203,146.5C 196.442,114.94 177.108,97.9402 145,95.5C 113.838,98.3297 94.8383,114.996 88,145.5C 87.6667,189.833 87.3333,234.167 87,278.5C 82.4201,286.067 77.4201,286.401 72,279.5C 71.3333,234.167 71.3333,188.833 72,143.5C 77.6986,112.467 95.5319,91.9667 125.5,82C 144.868,77.1199 163.368,79.2865 181,88.5C 177.659,56.1315 188.826,30.2982 214.5,11C 223.597,5.47318 233.263,1.63985 243.5,-0.5 Z"/></g>
<g><path style="opacity:0.93" fill="#000000" d="M 316.5,46.5 C 321.957,45.974 325.457,48.3073 327,53.5C 329.063,65.0551 330.063,76.7217 330,88.5C 356.456,75.6086 382.29,76.7752 407.5,92C 425.375,104.565 435.875,121.731 439,143.5C 439.667,206.833 439.667,270.167 439,333.5C 431.286,354.188 416.953,360.855 396,353.5C 397.868,369.933 391.701,382.099 377.5,390C 358.67,395.333 345.17,389.166 337,371.5C 335.927,365.551 335.26,359.551 335,353.5C 333.559,354.26 332.059,354.926 330.5,355.5C 329.946,364.581 329.113,373.581 328,382.5C 322.559,386.926 317.892,386.259 314,380.5C 313.832,372.147 313.332,363.813 312.5,355.5C 301.596,351.431 294.763,343.765 292,332.5C 291.667,315.167 291.333,297.833 291,280.5C 280.399,276.234 273.732,268.567 271,257.5C 270.333,242.5 270.333,227.5 271,212.5C 275.375,207.619 280.042,207.285 285,211.5C 286.301,226.074 286.967,240.74 287,255.5C 290.35,263.258 296.184,266.425 304.5,265C 309.428,263.073 312.594,259.573 314,254.5C 314.333,240.5 314.667,226.5 315,212.5C 319.375,207.619 324.042,207.285 329,211.5C 328.984,222.164 334.151,228.498 344.5,230.5C 351.089,229.302 355.589,225.635 358,219.5C 358.333,209.167 358.667,198.833 359,188.5C 361.955,184.723 365.788,183.557 370.5,185C 372.049,186.214 373.215,187.714 374,189.5C 374.667,200.167 374.667,210.833 374,221.5C 370.263,236.961 360.43,245.294 344.5,246.5C 340.012,246.136 335.678,245.136 331.5,243.5C 332.471,258.051 327.138,269.551 315.5,278C 312.904,279.136 310.237,279.969 307.5,280.5C 307.333,296.837 307.5,313.17 308,329.5C 310.816,337.992 316.649,341.492 325.5,340C 328.562,338.939 331.062,337.106 333,334.5C 334.681,330.033 336.181,325.533 337.5,321C 342.918,317.316 347.418,318.15 351,323.5C 351.333,337.167 351.667,350.833 352,364.5C 356.37,375.844 363.87,378.677 374.5,373C 376.049,371.786 377.215,370.286 378,368.5C 379.284,353.901 379.95,339.235 380,324.5C 382.602,318.958 386.769,317.458 392.5,320C 393.701,320.903 394.535,322.069 395,323.5C 396.099,337.281 403.266,342.448 416.5,339C 419.433,336.736 421.6,333.902 423,330.5C 423.667,268.833 423.667,207.167 423,145.5C 416.071,114.736 396.904,98.0695 365.5,95.5C 350.539,95.8729 337.539,101.04 326.5,111C 321.238,113.465 317.071,112.299 314,107.5C 313.667,93.5 313.333,79.5 313,65.5C 312.416,61.9049 311.582,58.4049 310.5,55C 311.161,51.1793 313.161,48.346 316.5,46.5 Z"/></g>
<g><path style="opacity:0.939" fill="#000000" d="M 334.5,511.5 C 281.833,511.5 229.167,511.5 176.5,511.5C 173.318,509.46 171.985,506.46 172.5,502.5C 173.068,490.528 178.401,481.361 188.5,475C 193.447,472.848 198.447,470.848 203.5,469C 206.531,466.441 208.698,463.274 210,459.5C 211.811,441.544 212.978,423.544 213.5,405.5C 201.931,406.131 192.765,401.798 186,392.5C 184.073,389.052 182.739,385.385 182,381.5C 181.832,372.814 181.332,364.148 180.5,355.5C 178.941,354.926 177.441,354.26 176,353.5C 177.558,367.859 172.725,379.359 161.5,388C 146.75,395.249 133.583,393.082 122,381.5C 116.296,373.063 113.962,363.73 115,353.5C 94.0469,360.855 79.7136,354.188 72,333.5C 71.3333,324.833 71.3333,316.167 72,307.5C 74.9547,303.723 78.788,302.557 83.5,304C 85.0488,305.214 86.2155,306.714 87,308.5C 87.3333,315.833 87.6667,323.167 88,330.5C 92.5832,340.361 99.7499,342.861 109.5,338C 113.783,334.162 115.95,329.329 116,323.5C 121.42,316.599 126.42,316.933 131,324.5C 131.333,338.167 131.667,351.833 132,365.5C 137.395,376.633 145.228,378.8 155.5,372C 156.794,369.913 157.961,367.746 159,365.5C 159.033,350.74 159.699,336.074 161,321.5C 164.996,317.797 169.163,317.63 173.5,321C 174.819,325.533 176.319,330.033 178,334.5C 185.667,342.5 193.333,342.5 201,334.5C 201.862,332.913 202.529,331.246 203,329.5C 203.333,315.833 203.667,302.167 204,288.5C 207.013,283.465 211.18,282.298 216.5,285C 217.701,285.903 218.535,287.069 219,288.5C 219.667,303.167 219.667,317.833 219,332.5C 216.209,343.79 209.376,351.456 198.5,355.5C 197.335,363.479 197.168,371.479 198,379.5C 201.329,388.082 207.495,391.248 216.5,389C 218.96,387.542 221.127,385.709 223,383.5C 224.634,379.161 226.134,374.827 227.5,370.5C 231.5,366.5 235.5,366.5 239.5,370.5C 240.248,377.497 243.248,383.33 248.5,388C 261.686,391.507 268.852,386.34 270,372.5C 275,365.833 280,365.833 285,372.5C 285.333,389.167 285.667,405.833 286,422.5C 288.134,429.25 292.801,432.916 300,433.5C 305.945,432.617 310.112,429.45 312.5,424C 313.254,419.205 313.754,414.372 314,409.5C 316.226,405.139 319.726,403.639 324.5,405C 326.667,405.833 328.167,407.333 329,409.5C 332.152,426.357 326.318,438.857 311.5,447C 307.586,448.283 303.586,449.116 299.5,449.5C 299.152,457.302 301.819,463.802 307.5,469C 318.751,471.265 327.585,477.098 334,486.5C 337.722,493.054 339.056,500.054 338,507.5C 336.968,509.027 335.801,510.36 334.5,511.5 Z M 232.5,397.5 C 237.168,400.501 242.168,403.001 247.5,405C 252.833,405.667 258.167,405.667 263.5,405C 265.519,404.55 267.352,403.717 269,402.5C 269.123,411.227 269.79,419.894 271,428.5C 273.067,435.307 277.067,440.64 283,444.5C 281.71,468.446 292.543,483.612 315.5,490C 317.543,491.708 319.21,493.708 320.5,496C 277.167,496.667 233.833,496.667 190.5,496C 191.79,493.708 193.457,491.708 195.5,490C 205.004,487.335 213.171,482.501 220,475.5C 224.536,468.89 226.87,461.557 227,453.5C 227.958,437.164 228.958,420.831 230,404.5C 230.168,401.823 231.001,399.49 232.5,397.5 Z"/></g>
</svg>
